<?xml version="1.0" standalone="no"?>
<!DOCTYPE svg PUBLIC "-//W3C//DTD SVG 20010904//EN"
 "http://www.w3.org/TR/2001/REC-SVG-20010904/DTD/svg10.dtd">
<svg version="1.0" xmlns="http://www.w3.org/2000/svg"
 width="700.000000pt" height="700.000000pt" viewBox="0 0 700.000000 700.000000"
 preserveAspectRatio="xMidYMid meet">
<metadata>
Created by potrace 1.14, written by Peter Selinger 2001-2017
</metadata>
<g transform="translate(0.000000,700.000000) scale(0.100000,-0.100000)"
fill="#000000" stroke="none">
<path d="M3200 6990 c-470 -47 -846 -154 -1255 -356 -821 -405 -1468 -1143
-1759 -2007 -41 -123 -44 -142 -18 -132 28 12 401 15 467 4 278 -46 573 -161
810 -316 135 -88 220 -157 346 -280 l107 -104 6 43 c3 24 6 91 7 149 3 196 61
424 167 649 195 415 546 697 1016 815 574 144 1189 -23 1571 -426 85 -90 140
-164 230 -314 164 -270 233 -339 449 -441 143 -68 267 -98 406 -98 100 0 133
5 257 37 162 42 193 45 217 18 26 -29 22 -72 -13 -146 -92 -198 -397 -360
-696 -371 -155 -5 -297 29 -417 101 -63 37 -62 38 -73 -30 -15 -91 -85 -282
-145 -392 -91 -167 -248 -345 -385 -435 -195 -129 -417 -187 -663 -175 -64 3
-126 8 -137 11 -11 2 -41 9 -68 15 -171 40 -324 120 -438 233 -103 101 -143
155 -200 267 -127 253 -147 566 -50 817 59 151 155 255 306 329 102 50 164 65
275 65 136 0 283 -65 360 -158 158 -191 132 -508 -54 -651 -68 -53 -131 -80
-203 -87 -73 -8 -104 -22 -121 -56 -15 -33 0 -76 44 -124 193 -208 577 -169
763 78 116 155 172 350 166 573 -2 61 -9 133 -15 160 -7 28 -14 61 -16 75 -3
14 -20 59 -37 100 -97 225 -282 392 -554 502 -309 124 -624 86 -919 -112 -154
-104 -330 -308 -400 -466 -81 -182 -108 -311 -108 -519 0 -182 20 -304 80
-481 93 -279 232 -525 585 -1038 191 -276 201 -291 271 -401 404 -636 630
-1281 639 -1822 1 -61 4 -73 18 -73 41 0 292 54 418 90 285 81 510 173 773
318 81 44 339 213 400 261 220 175 443 389 584 561 42 52 85 104 94 115 9 11
66 95 127 186 111 165 237 399 314 580 105 248 196 573 231 824 6 44 14 95 16
113 16 106 22 247 19 477 -2 143 -5 271 -8 285 -3 14 -8 54 -12 90 -10 107
-44 286 -81 435 -312 1239 -1285 2218 -2519 2535 -82 21 -168 41 -189 44 -21
4 -48 8 -60 11 -38 9 -80 15 -156 25 -41 5 -93 12 -115 15 -65 9 -573 13 -655
5z"/>
<path d="M57 4123 c-8 -13 -27 -142 -41 -278 -14 -125 -15 -643 -3 -705 3 -14
10 -65 17 -115 58 -472 233 -961 495 -1384 74 -120 200 -296 288 -401 98 -118
363 -380 477 -471 510 -411 1076 -658 1721 -753 155 -23 146 -25 142 37 -2 28
-13 122 -24 207 -10 85 -21 173 -24 195 -3 22 -8 60 -11 85 -36 289 -119 653
-216 950 -424 1296 -1325 2184 -2624 2584 -195 61 -191 59 -197 49z"/>
</g>
</svg>
