<?xml version="1.0" standalone="no"?>
<!DOCTYPE svg PUBLIC "-//W3C//DTD SVG 20010904//EN"
 "http://www.w3.org/TR/2001/REC-SVG-20010904/DTD/svg10.dtd">
<svg version="1.0" xmlns="http://www.w3.org/2000/svg"
 width="700.000000pt" height="700.000000pt" viewBox="0 0 700.000000 700.000000"
 preserveAspectRatio="xMidYMid meet">
<metadata>
Created by potrace 1.14, written by Peter Selinger 2001-2017
</metadata>
<g transform="translate(0.000000,700.000000) scale(0.100000,-0.100000)"
fill="#000000" stroke="none">
<path d="M3205 6989 c-106 -10 -240 -29 -315 -44 -14 -3 -50 -10 -80 -16 -99
-19 -283 -69 -401 -109 -764 -256 -1437 -791 -1865 -1482 -218 -352 -387 -777
-457 -1152 -12 -60 -12 -78 -2 -86 7 -5 52 -12 100 -15 119 -7 194 -20 311
-53 194 -56 464 -178 654 -296 141 -88 367 -256 455 -339 11 -10 28 -23 37
-28 21 -11 25 8 32 161 9 180 30 292 88 465 133 401 421 770 770 983 389 238
778 276 1278 126 93 -28 120 -39 226 -90 39 -19 74 -34 78 -34 10 0 121 -76
181 -123 28 -22 109 -99 180 -172 124 -126 190 -210 300 -382 54 -86 212 -250
290 -303 28 -19 52 -37 53 -42 2 -4 7 -8 12 -8 4 0 39 -18 76 -40 84 -49 241
-111 349 -138 219 -55 396 -46 537 27 77 41 102 46 146 34 20 -5 23 -10 18
-35 -15 -77 -228 -327 -350 -410 -129 -89 -286 -138 -451 -143 -131 -3 -202 7
-365 54 -110 32 -137 36 -149 26 -7 -7 -29 -66 -47 -131 -121 -414 -443 -770
-809 -893 -96 -32 -221 -48 -366 -46 -151 3 -200 8 -312 36 -168 41 -265 97
-398 229 -150 150 -271 371 -313 574 -3 11 -7 32 -10 46 -20 90 -26 248 -13
345 33 258 194 452 442 532 120 38 313 38 421 -1 122 -43 201 -123 253 -254
26 -66 34 -114 35 -207 0 -87 -16 -131 -78 -209 -93 -119 -200 -195 -348 -246
-115 -40 -112 -90 11 -179 141 -100 415 -103 601 -6 329 173 451 674 263 1074
-151 320 -473 557 -823 606 -58 9 -230 9 -255 2 -11 -4 -36 -9 -55 -12 -166
-28 -391 -153 -546 -302 -139 -133 -220 -244 -298 -405 -82 -172 -117 -318
-118 -493 -1 -127 7 -195 38 -320 70 -286 236 -607 598 -1155 465 -705 559
-862 700 -1175 118 -262 172 -413 246 -693 l11 -43 47 5 c26 3 78 8 115 11 37
4 76 8 85 10 9 1 37 6 62 10 251 38 573 135 844 254 53 23 241 116 266 131
278 168 437 279 597 420 l83 72 114 -7 c63 -3 125 -8 138 -10 13 -2 73 -6 133
-10 61 -3 128 -8 150 -10 118 -9 264 -18 294 -16 47 3 125 45 154 83 48 64 52
81 62 243 3 50 8 118 10 153 8 98 14 180 20 277 7 95 10 140 22 300 13 186 10
307 -10 342 -21 39 -62 79 -102 100 -16 9 -31 16 -32 17 -2 2 8 36 21 77 24
71 60 207 70 259 2 14 9 45 15 70 14 62 19 93 31 185 6 44 13 91 16 105 19
101 26 536 11 717 -83 1060 -677 2060 -1572 2644 -148 97 -528 299 -562 299
-5 0 -27 8 -49 19 -57 27 -262 96 -389 130 -174 47 -355 81 -520 96 -38 4 -83
9 -100 12 -50 8 -515 10 -590 2z"/>
<path d="M4 3548 c3 -35 8 -101 11 -148 10 -142 23 -286 29 -317 2 -10 7 -40
10 -68 10 -80 16 -119 21 -145 3 -14 8 -38 10 -55 3 -16 22 -94 41 -173 94
-384 237 -713 467 -1072 34 -52 64 -97 67 -100 3 -3 17 -21 30 -40 24 -36 136
-172 200 -245 81 -92 338 -340 436 -422 231 -193 534 -370 891 -521 153 -66
244 -98 378 -137 96 -27 264 -59 272 -51 6 6 -50 315 -84 460 -14 61 -29 127
-33 146 -15 64 -58 213 -95 330 -152 472 -412 943 -738 1340 -87 105 -277 299
-376 382 -40 34 -78 67 -85 73 -36 36 -348 260 -496 357 -318 209 -432 269
-729 384 -91 36 -176 69 -189 74 -39 17 -42 13 -38 -52z"/>
</g>
</svg>
