<svg width="900" height="900" fill="none" xmlns="http://www.w3.org/2000/svg"><path fill-rule="evenodd" clip-rule="evenodd" d="M514.827 897.538C732.639 866.036 900 678.156 900 451.092 900 201.961 698.528 0 450 0 246.188 0 74.023 135.823 18.668 322.1c24.562-2.963 47.67-2.809 61.504-1.03 62.798 9.802 121.701 42.74 163.393 90.532 1.708-7.202 1.686-14.634 1.664-22.084-.018-5.867-.035-11.745.792-17.531 4.329-30.267 15.208-61.684 30.997-87.844 56.314-93.304 187.797-117.892 279.574-64.963 23.475 13.538 45.002 32.327 60.591 54.629 4.727 6.761 8.856 13.791 12.951 20.76 9.808 16.695 19.413 33.045 36.533 44.538 25.109 16.856 62.712 29.664 92.876 22.082 2.802-.705 5.643-1.458 8.504-2.216 7.462-1.978 15.061-3.993 22.453-5.279 4.016-.697 9.086-.749 11.34 3.338 2.731 4.958.019 12.023-2.126 16.677-6.409 13.9-16.888 23.303-29.851 30.978-36.949 21.878-86.888 26.944-122.115.026-1.173 14.382-6.371 28.047-11.696 41.338-11.263 28.115-30.508 54.673-55.381 72.267-41.824 29.581-101.068 32.743-146.194 9.057-13.042-6.845-24.399-16.894-34.082-27.929-30.929-35.25-40.36-93.387-20.4-136.072 18.701-39.991 74.447-60.35 111.238-31.814 27.605 21.411 29.27 68.864 1.655 91.188-6.23 5.035-14.408 9.479-22.292 11.103-1.891.39-3.857.49-5.825.591-3.306.17-6.616.339-9.572 1.882-7.485 3.908-7.083 10.471-2.578 16.609 23.112 31.498 72.09 26.147 96.53-.287 30.376-32.85 34.06-91.976 13.478-130.61-10.758-20.195-29.101-36.789-49.035-47.69-16.563-9.057-39.507-17.037-58.485-17.729-59.172-2.16-115.224 41.934-134.379 96.423-32.397 92.158 26.886 177.202 78.536 251.298 7.823 11.223 15.471 22.194 22.599 32.901 51.392 77.2 93.363 167.089 92.962 260.299ZM405.435 900C177.827 877.57 0 685.148 0 451.092c0-28.076 2.559-55.553 7.455-82.209 28.285 7.838 55.847 16.715 83.037 28.456 44.407 19.176 86.614 44.288 123.835 75.297 114.437 95.341 170.7 234.529 185.924 379.906.561 5.362 1.327 10.692 2.094 16.024 1.206 8.389 2.413 16.783 2.825 25.314.098 2.04.186 4.08.265 6.12Z" fill="#0071E5"/><path fill-rule="evenodd" clip-rule="evenodd" d="M514.827 897.538C732.639 866.036 900 678.156 900 451.092 900 201.961 698.528 0 450 0 246.188 0 74.023 135.823 18.668 322.1c24.562-2.963 47.67-2.809 61.504-1.03 62.798 9.802 121.701 42.74 163.393 90.532 1.708-7.202 1.686-14.634 1.664-22.084-.018-5.867-.035-11.745.792-17.531 4.329-30.267 15.208-61.684 30.997-87.844 56.314-93.304 187.797-117.892 279.574-64.963 23.475 13.538 45.002 32.327 60.591 54.629 4.727 6.761 8.856 13.791 12.951 20.76 9.808 16.695 19.413 33.045 36.533 44.538 25.109 16.856 62.712 29.664 92.876 22.082 2.802-.705 5.643-1.458 8.504-2.216 7.462-1.978 15.061-3.993 22.453-5.279 4.016-.697 9.086-.749 11.34 3.338 2.731 4.958.019 12.023-2.126 16.677-6.409 13.9-16.888 23.303-29.851 30.978-36.949 21.878-86.888 26.944-122.115.026-1.173 14.382-6.371 28.047-11.696 41.338-11.263 28.115-30.508 54.673-55.381 72.267-41.824 29.581-101.068 32.743-146.194 9.057-13.042-6.845-24.399-16.894-34.082-27.929-30.929-35.25-40.36-93.387-20.4-136.072 18.701-39.991 74.447-60.35 111.238-31.814 27.605 21.411 29.27 68.864 1.655 91.188-6.23 5.035-14.408 9.479-22.292 11.103-1.891.39-3.857.49-5.825.591-3.306.17-6.616.339-9.572 1.882-7.485 3.908-7.083 10.471-2.578 16.609 23.112 31.498 72.09 26.147 96.53-.287 30.376-32.85 34.06-91.976 13.478-130.61-10.758-20.195-29.101-36.789-49.035-47.69-16.563-9.057-39.507-17.037-58.485-17.729-59.172-2.16-115.224 41.934-134.379 96.423-32.397 92.158 26.886 177.202 78.536 251.298 7.823 11.223 15.471 22.194 22.599 32.901 51.392 77.2 93.363 167.089 92.962 260.299ZM405.435 900C177.827 877.57 0 685.148 0 451.092c0-28.076 2.559-55.553 7.455-82.209 28.285 7.838 55.847 16.715 83.037 28.456 44.407 19.176 86.614 44.288 123.835 75.297 114.437 95.341 170.7 234.529 185.924 379.906.561 5.362 1.327 10.692 2.094 16.024 1.206 8.389 2.413 16.783 2.825 25.314.098 2.04.186 4.08.265 6.12Z" fill="url(#a)"/><defs><linearGradient id="a" x1="450" y1="0" x2="450" y2="902.184" gradientUnits="userSpaceOnUse"><stop stop-color="#0071E5"/><stop offset="1" stop-color="#4AC3F5"/></linearGradient></defs></svg>